#!OML:ASF X:\für Bonn\!DataBase\2005_08_12_Daniel\c3d\Daniel.ASF
:FULLY-SPECIFIED
:DEGREES
123
root 0.0894145 15.4071 0.435519 -20.7723 -81.4264 2.98428
lowerback 17.8678 -0.536107 4.85602
upperback 0.518515 0.016323 -2.09251
thorax -9.48932 -0.294886 -5.06049
lowerneck 10.9145 -3.48441 -3.3207
upperneck -1.22113 -5.29875 -3.46275
head -2.27421 -2.53016 -0.257315
rclavicle -2.70347e-014 6.36111e-015
rhumerus -133.475 -188.308 106.436
rradius 89.0324
rwrist 34.1866
rhand -60.8155 36.3056
rfingers 7.12502
rthumb -32.9279 9.2902
lclavicle -2.70347e-014 6.36111e-015
lhumerus -128.908 212.591 -109.71
lradius 85.9302
lwrist 16.2494
lhand -32.3886 347.755
lfingers 7.12502
lthumb -5.62397 17.6603
rfemur -2.01424 -11.7964 4.1459
rtibia 62.1679
rfoot -29.4922 0.56309
rtoes -14.4706
lfemur -11.2055 -8.25116 -18.3881
ltibia 64.305
lfoot -35.1339 -9.51562
ltoes 0.544022
124
root 0.0476357 15.3637 0.433755 -20.2597 -81.1172 2.34735
lowerback 17.7844 -0.500624 4.80811
upperback 0.272417 0.0598109 -2.09115
thorax -9.71028 -0.281667 -5.04573
lowerneck 10.4351 -3.62093 -3.29111
upperneck -0.56889 -5.43294 -3.52622
head -1.97143 -2.62063 -0.294258
rclavicle -2.28602e-015 1.27222e-014
rhumerus -132.06 -187.385 107.295
rradius 89.3013
rwrist 34.2466
rhand -61.5876 39.2609
rfingers 7.12502
rthumb -33.6619 12.4027
lclavicle -2.28602e-015 1.27222e-014
lhumerus -127.605 212.255 -110.246
lradius 86.1844
lwrist 15.6438
lhand -32.5585 347.258
lfingers 7.12502
lthumb -5.78795 17.1592
rfemur -1.75159 -12.4027 3.73272
rtibia 62.5877
rfoot -29.5694 1.1764
rtoes -14.3382
lfemur -11.2773 -8.33813 -18.2837
ltibia 64.8578
lfoot -35.3542 -9.97549
ltoes 0.700686
125
root 0.00531323 15.3246 0.431927 -19.6841 -80.8189 1.64182
lowerback 17.6978 -0.471768 4.78846
upperback 0.0519114 0.0986589 -2.09175
thorax -9.90208 -0.270941 -5.04782
lowerneck 9.93903 -3.75153 -3.27446
upperneck 0.018757 -5.56149 -3.57664
head -1.69022 -2.70675 -0.325703
rclavicle -1.12313e-014 3.18055e-015
rhumerus -130.788 -186.491 108.094
rradius 89.7008
rwrist 34.2345
rhand -62.156 41.9055
rfingers 7.12502
rthumb -34.2019 15.1667
lclavicle -1.12313e-014 3.18055e-015
lhumerus -126.321 211.92 -110.785
lradius 86.4079
lwrist 15.0577
lhand -32.8158 347.011
lfingers 7.12502
lthumb -6.0364 16.905
rfemur -1.45551 -13.0051 3.33443
rtibia 62.9633
rfoot -29.6402 1.76739
rtoes -14.306
lfemur -11.3253 -8.39743 -18.1503
ltibia 65.3698
lfoot -35.534 -10.4525
ltoes 0.873996
126
root -0.036683 15.2882 0.429729 -19.3285 -80.5108 1.18961
lowerback 17.6041 -0.436371 4.72444
upperback -0.177463 0.134567 -2.11043
thorax -10.1003 -0.260475 -5.04373
lowerneck 9.37662 -3.87787 -3.25358
upperneck 0.664634 -5.67791 -3.60427
head -1.38143 -2.78977 -0.354527
rclavicle -1.40143e-014 1.31198e-014
rhumerus -129.615 -185.616 108.841
rradius 90.1242
rwrist 34.1638
rhand -62.5677 44.099
rfingers 7.12502
rthumb -34.5927 17.4488
lclavicle -1.40143e-014 1.31198e-014
lhumerus -125.087 211.598 -111.274
lradius 86.5627
lwrist 14.5446
lhand -33.0146 346.688
lfingers 7.12502
lthumb -6.2283 16.5761
rfemur -1.1599 -13.6194 2.88892
rtibia 63.3005
rfoot -29.6742 2.392
rtoes -14.0779
lfemur -11.3853 -8.42032 -18.0292
ltibia 65.8402
lfoot -35.6638 -10.987
ltoes 1.07402
127
root -0.0784912 15.2551 0.427505 -18.8265 -80.2114 0.596465
lowerback 17.5018 -0.40334 4.6894
upperback -0.402455 0.173997 -2.11498
thorax -10.2887 -0.249029 -5.04145
lowerneck 8.87525 -4.01269 -3.25618
upperneck 1.22686 -5.81499 -3.64969
head -1.11426 -2.87963 -0.38271
rclavicle -2.127e-014 2.46493e-014
rhumerus -128.493 -184.77 109.561
rradius 90.5423
rwrist 34.0362
rhand -62.8144 45.9804
rfingers 7.12502
rthumb -34.8268 19.3841
lclavicle -2.127e-014 2.46493e-014
lhumerus -123.875 211.307 -111.719
lradius 86.566
lwrist 14.0955
lhand -33.2489 346.142
lfingers 7.12502
lthumb -6.45452 16.0239
rfemur -0.830579 -14.2229 2.47995
rtibia 63.5874
rfoot -29.7258 3.03288
rtoes -13.9818
lfemur -11.4407 -8.44677 -17.8725
ltibia 66.2709
lfoot -35.761 -11.5292
ltoes 1.30724
128
root -0.119284 15.2237 0.42446 -18.6074 -79.8978 0.294776
lowerback 17.3769 -0.361933 4.59774
upperback -0.593596 0.209453 -2.12874
thorax -10.427 -0.234685 -5.01457
lowerneck 8.31636 -4.13812 -3.28986
upperneck 1.77012 -5.93914 -3.6706
head -0.844866 -2.96339 -0.400914
rclavicle -1.51076e-014 1.59028e-015
rhumerus -127.365 -183.908 110.275
rradius 90.9355
rwrist 33.7991
rhand -62.913 47.8033
rfingers 7.12502
rthumb -34.9204 21.2287
lclavicle -1.51076e-014 1.59028e-015
lhumerus -122.644 210.996 -112.185
lradius 86.3985
lwrist 13.7458
lhand -33.5269 345.232
lfingers 7.12502
lthumb -6.72292 15.1051
rfemur -0.501848 -14.8181 2.01589
rtibia 63.8447
rfoot -29.7493 3.62126
rtoes -13.8278
lfemur -11.4894 -8.45406 -17.7621
ltibia 66.6575
lfoot -35.8585 -11.9984
ltoes 1.48761
129
root -0.15652 15.1957 0.419785 -18.216 -79.5944 -0.151844
lowerback 17.2219 -0.31993 4.54656
upperback -0.79921 0.25291 -2.14437
thorax -10.5636 -0.218915 -5.01486
lowerneck 7.75967 -4.26724 -3.35347
upperneck 2.3348 -6.06942 -3.64972
head -0.570161 -3.05157 -0.402917
rclavicle -7.7526e-015 -1.23246e-014
rhumerus -126.406 -183.038 110.926
rradius 91.4048
rwrist 33.6089
rhand -63.0107 49.2742
rfingers 7.12502
rthumb -35.0131 22.7212
lclavicle -7.7526e-015 -1.23246e-014
lhumerus -121.502 210.753 -112.588
lradius 86.163
lwrist 13.444
lhand -33.7353 344.032
lfingers 7.12502
lthumb -6.92403 13.8984
rfemur -0.187845 -15.3635 1.64356
rtibia 64.0397
rfoot -29.7728 4.16446
rtoes -13.6295
lfemur -11.5624 -8.47506 -17.6032
ltibia 66.9922
lfoot -35.8751 -12.5351
ltoes 1.64098
130
root -0.193659 15.1752 0.416175 -17.8303 -79.3004 -0.577553
lowerback 17.0596 -0.282497 4.51692
upperback -0.997568 0.293032 -2.16816
thorax -10.6882 -0.205861 -5.03543
lowerneck 7.20027 -4.39922 -3.39366
upperneck 2.86052 -6.20262 -3.66785
head -0.312762 -3.13929 -0.421237
rclavicle -8.74653e-015 -1.63003e-014
rhumerus -125.574 -182.193 111.448
rradius 91.923
rwrist 33.4768
rhand -63.0113 50.6817
rfingers 7.12502
rthumb -35.0137 24.1288
lclavicle -8.74653e-015 -1.63003e-014
lhumerus -120.373 210.514 -113.021
lradius 85.9614
lwrist 13.2753
lhand -33.9032 342.752
lfingers 7.12502
lthumb -7.08616 12.6134
rfemur 0.153707 -15.8958 1.29092
rtibia 64.1423
rfoot -29.7575 4.65662
rtoes -13.4586
lfemur -11.6123 -8.50683 -17.452
ltibia 67.2474
lfoot -35.8588 -13.0206
ltoes 1.83728
